<svg xmlns="http://www.w3.org/2000/svg" xmlns:xlink="http://www.w3.org/1999/xlink" width="1920" height="5000" viewBox="0 0 1920 5000"><defs><clipPath id="b"><rect width="1920" height="5000"/></clipPath></defs><g id="a" clip-path="url(#b)"><rect width="1920" height="5000" fill="#fff"/><path d="M150.091,75.046a75.046,75.046,0,1,0,75.046,75.046,75.131,75.131,0,0,0-75.046-75.046m0-75.046A150.091,150.091,0,1,1,0,150.091,150.091,150.091,0,0,1,150.091,0Z" transform="translate(258.74 3409.167)" fill="#eaedf0"/><path d="M150.091,75.046a75.046,75.046,0,1,0,75.046,75.046,75.131,75.131,0,0,0-75.046-75.046m0-75.046A150.091,150.091,0,1,1,0,150.091,150.091,150.091,0,0,1,150.091,0Z" transform="translate(1541.25 4410.167)" fill="#eaedf0"/><path d="M40.024,20.012A20.012,20.012,0,1,1,20.012,40.024,20.035,20.035,0,0,1,40.024,20.012M40.024,0A40.024,40.024,0,1,0,80.049,40.024,40.024,40.024,0,0,0,40.024,0Z" transform="translate(1791.338 1764.832)" fill="#eaedf0"/><path d="M6727.052,18565.99l71.134,71.145,38.914-38.912-71.138-71.156,71.138-71.156-38.914-38.91-71.134,71.15-71.131-71.15-38.913,38.91,71.137,71.156-71.137,71.156,38.913,38.912Z" transform="translate(-5414.331 -17039.074)" fill="#eaedf0"/><path d="M6782.074,18640.486l106.7,106.715,58.371-58.365L6840.439,18582.1l106.706-106.734L6888.774,18417l-106.7,106.725L6675.378,18417l-58.37,58.365,106.705,106.734-106.705,106.736,58.37,58.365Z" transform="translate(-5115.782 -16006.775)" fill="#eaedf0"/><path d="M6782.074,18640.486l106.7,106.715,58.371-58.365L6840.439,18582.1l106.706-106.734L6888.774,18417l-106.7,106.725L6675.378,18417l-58.37,58.365,106.705,106.734-106.705,106.736,58.37,58.365Z" transform="translate(-5075.758 -17714.482)" fill="#eaedf0"/><path d="M6727.052,18565.99l71.134,71.145,38.914-38.912-71.138-71.156,71.138-71.156-38.914-38.91-71.134,71.15-71.131-71.15-38.913,38.91,71.137,71.156-71.137,71.156,38.913,38.912Z" transform="translate(-5414.331 -14362.441)" fill="#eaedf0"/><path d="M6647.019,18497.049v-30.016H6617v-20.016h30.017V18417h20.008v30.018h30.024v20.016h-30.024v30.016Z" transform="translate(-4825.664 -15303.012)" fill="#eaedf0"/><path d="M6769.182,18660.48v-91.291h91.3V18508.3h-91.3V18417h-60.857v91.3H6617v60.885h91.322v91.291Z" transform="translate(-6568.389 -16895.648)" fill="#eaedf0"/><path d="M6769.182,18660.48v-91.291h91.3V18508.3h-91.3V18417h-60.857v91.3H6617v60.885h91.322v91.291Z" transform="translate(-6568.389 -14219.018)" fill="#eaedf0"/><path d="M6688.285,18607.1v-71.281H6617v-47.531h71.283V18417H6735.8v71.285h71.3v47.531h-71.3v71.281Z" transform="translate(-6058.079 -15676.574)" fill="#eaedf0"/><circle cx="40.024" cy="40.024" r="40.024" transform="translate(890.793 135.505)" fill="#eaedf0"/><path d="M150.091,75.046a75.046,75.046,0,1,0,75.046,75.046,75.131,75.131,0,0,0-75.046-75.046m0-75.046A150.091,150.091,0,1,1,0,150.091,150.091,150.091,0,0,1,150.091,0Z" transform="translate(258.74 732.536)" fill="#eaedf0"/><path d="M6647.019,18497.049v-30.016H6617v-20.016h30.017V18417h20.008v30.018h30.024v20.016h-30.024v30.016Z" transform="translate(-4825.664 -17979.643)" fill="#eaedf0"/></g></svg>