<svg xmlns="http://www.w3.org/2000/svg" xmlns:xlink="http://www.w3.org/1999/xlink" width="1920" height="5000" viewBox="0 0 1920 5000"><defs><clipPath id="b"><rect width="1920" height="5000"/></clipPath></defs><g id="a" clip-path="url(#b)"><rect width="1920" height="5000" fill="#fff"/><path d="M69.888,34.944A34.944,34.944,0,1,1,34.944,69.888,34.983,34.983,0,0,1,69.888,34.944M69.888,0a69.888,69.888,0,1,0,69.888,69.888A69.888,69.888,0,0,0,69.888,0Z" transform="translate(1584.807 3607.28)" fill="#eaedf0"/><path d="M69.888,34.944A34.944,34.944,0,1,1,34.944,69.888,34.983,34.983,0,0,1,69.888,34.944M69.888,0a69.888,69.888,0,1,0,69.888,69.888A69.888,69.888,0,0,0,69.888,0Z" transform="translate(723.807 4050.647)" fill="#eaedf0"/><path d="M69.888,34.944A34.944,34.944,0,1,1,34.944,69.888,34.983,34.983,0,0,1,69.888,34.944M69.888,0a69.888,69.888,0,1,0,69.888,69.888A69.888,69.888,0,0,0,69.888,0Z" transform="translate(1724.583 2670.835)" fill="#eaedf0"/><path d="M26.356,13.178A13.178,13.178,0,1,0,39.534,26.356,13.193,13.193,0,0,0,26.356,13.178M26.356,0A26.356,26.356,0,1,1,0,26.356,26.356,26.356,0,0,1,26.356,0Z" transform="translate(172.742 1498.403)" fill="#eaedf0"/><path d="M26.356,13.178A13.178,13.178,0,1,0,39.534,26.356,13.193,13.193,0,0,0,26.356,13.178M26.356,0A26.356,26.356,0,1,1,0,26.356,26.356,26.356,0,0,1,26.356,0Z" transform="translate(1601.983 3228.403)" fill="#eaedf0"/><path d="M26.356,13.178A13.178,13.178,0,1,0,39.534,26.356,13.193,13.193,0,0,0,26.356,13.178M26.356,0A26.356,26.356,0,1,1,0,26.356,26.356,26.356,0,0,1,26.356,0Z" transform="translate(1413.475 4751.403)" fill="#eaedf0"/><path d="M26.356,13.178A13.178,13.178,0,1,0,39.534,26.356,13.193,13.193,0,0,0,26.356,13.178M26.356,0A26.356,26.356,0,1,1,0,26.356,26.356,26.356,0,0,1,26.356,0Z" transform="translate(1532.096 824.403)" fill="#eaedf0"/><path d="M6689.474,18515.109l-46.842,46.848-25.624-25.625,46.844-46.855-46.844-46.855,25.624-25.621,46.842,46.852,46.839-46.852,25.624,25.621-46.844,46.855,46.844,46.855-25.624,25.625Z" transform="translate(-6065.465 -16590.324)" fill="#eaedf0"/><path d="M6725.706,18564.164l-70.262,70.27L6617.008,18596l70.265-70.283-70.265-70.283,38.437-38.434,70.262,70.277,70.258-70.277,38.437,38.434-70.265,70.283L6834.4,18596l-38.437,38.434Z" transform="translate(-6417.911 -14061.586)" fill="#eaedf0"/><path d="M6687.319,18512.193l-45.448,45.455-24.863-24.863,45.451-45.461-45.451-45.463,24.863-24.861,45.448,45.459,45.446-45.459,24.863,24.861-45.451,45.463,45.451,45.461-24.863,24.863Z" transform="translate(-6391.554 -17539.887)" fill="#eaedf0"/><path d="M6689.474,18515.109l-46.842,46.848-25.624-25.625,46.844-46.855-46.844-46.855,25.624-25.621,46.842,46.852,46.839-46.852,25.624,25.621-46.844,46.855,46.844,46.855-25.624,25.625Z" transform="translate(-6272.982 -15700.832)" fill="#eaedf0"/><path d="M6689.474,18515.109l-46.842,46.848-25.624-25.625,46.844-46.855-46.844-46.855,25.624-25.621,46.842,46.852,46.839-46.852,25.624,25.621-46.844,46.855,46.844,46.855-25.624,25.625Z" transform="translate(-5275.997 -14061.586)" fill="#eaedf0"/><path d="M6649.947,18469.711v-19.766h19.766v-13.18h-19.766V18417h-13.175v19.766H6617v13.18h19.771v19.766Z" transform="translate(-6568.388 -16320.189)" fill="#eaedf0"/><path d="M6677.125,18577.328v-60.113H6617v-40.092h60.122V18417H6717.2v60.123h60.135v40.092H6717.2v60.113Z" transform="translate(-5528.439 -17368.928)" fill="#eaedf0"/><path d="M6677.125,18577.328v-60.113H6617v-40.092h60.122V18417H6717.2v60.123h60.135v40.092H6717.2v60.113Z" transform="translate(-5528.439 -15606.39)" fill="#eaedf0"/><path d="M6695.241,18542.18v-46.939h46.939v-31.3h-46.939V18417h-31.288v46.939H6617v31.3h46.951v46.939Z" transform="translate(-4988.652 -16445.369)" fill="#eaedf0"/><path d="M6695.241,18542.18v-46.939h46.939v-31.3h-46.939V18417h-31.288v46.939H6617v31.3h46.951v46.939Z" transform="translate(-6190.637 -15030.369)" fill="#eaedf0"/><ellipse cx="26.356" cy="26.356" rx="26.356" ry="26.356" transform="translate(641.615 135.505)" fill="#eaedf0"/><ellipse cx="26.356" cy="26.356" rx="26.356" ry="26.356" transform="translate(74.969 3333.921)" fill="#eaedf0"/><path d="M98.834,49.417A49.417,49.417,0,1,1,49.417,98.834,49.473,49.473,0,0,1,98.834,49.417M98.834,0a98.834,98.834,0,1,0,98.834,98.834A98.834,98.834,0,0,0,98.834,0Z" transform="translate(1555.86 386.982)" fill="#eaedf0"/><path d="M6649.947,18469.711v-19.766h19.766v-13.18h-19.766V18417h-13.175v19.766H6617v13.18h19.771v19.766Z" transform="translate(-6568.388 -18082.729)" fill="#eaedf0"/><path d="M6649.947,18469.711v-19.766h19.766v-13.18h-19.766V18417h-13.175v19.766H6617v13.18h19.771v19.766Z" transform="translate(-6542.033 -17234.955)" fill="#eaedf0"/><path d="M6649.947,18469.711v-19.766h19.766v-13.18h-19.766V18417h-13.175v19.766H6617v13.18h19.771v19.766Z" transform="translate(-6542.033 -14235.305)" fill="#eaedf0"/><path d="M6649.947,18469.711v-19.766h19.766v-13.18h-19.766V18417h-13.175v19.766H6617v13.18h19.771v19.766Z" transform="translate(-6200.512 -13559.305)" fill="#eaedf0"/></g></svg>