<svg xmlns="http://www.w3.org/2000/svg" width="100" height="100" viewBox="0 0 100 100">
  <g id="Group_8346" data-name="Group 8346" transform="translate(27 -294.896)">
    <g id="Lamp" transform="translate(0 311.896)">
      <g id="Group">
        <path id="Vector" d="M.534,18.152A23.209,23.209,0,0,0,5.855,38.612a15.022,15.022,0,0,1,3.821,9.855v3.856a5.791,5.791,0,0,0,4,5.535,9.653,9.653,0,0,0,19.068,0,5.825,5.825,0,0,0,4-5.535V48.468A15.393,15.393,0,0,1,40.67,38.434,23.189,23.189,0,0,0,18.21.512,23.054,23.054,0,0,0,.534,18.152Z" transform="translate(0 0)" fill="none" stroke="#fff" stroke-linecap="round" stroke-linejoin="round" stroke-width="1.5" stroke-dasharray="0 0"/>
        <path id="Vector-2" data-name="Vector" d="M0,0A12.26,12.26,0,0,1,12.248,12.212" transform="translate(23.173 11.01)" fill="none" stroke="#fff" stroke-linecap="round" stroke-linejoin="round" stroke-width="1.5" stroke-dasharray="0 0"/>
        <path id="Vector-3" data-name="Vector" d="M0,0H22.032" transform="translate(12.175 55.073)" fill="none" stroke="#fff" stroke-linecap="round" stroke-linejoin="round" stroke-width="1.5" stroke-dasharray="0 0"/>
        <path id="Vector-4" data-name="Vector" d="M0,0H25.836" transform="translate(10.382 44.04)" fill="none" stroke="#fff" stroke-linecap="round" stroke-linejoin="round" stroke-width="1.5" stroke-dasharray="0 0"/>
      </g>
    </g>
    <rect id="Rectangle_1075" data-name="Rectangle 1075" width="100" height="100" transform="translate(-27 294.896)" fill="#fff" opacity="0"/>
  </g>
</svg>
