<svg xmlns="http://www.w3.org/2000/svg" width="100" height="100" viewBox="0 0 100 100">
  <g id="rocket_white" transform="translate(-462 -2088)">
    <rect id="Rectangle_1075" data-name="Rectangle 1075" width="100" height="100" transform="translate(462 2088)" fill="#fff" opacity="0"/>
    <g id="Rocket" transform="translate(473 2105)">
      <g id="Group" transform="translate(13 0)">
        <path id="Vector" d="M22.314,1.248A50.654,50.654,0,0,1,34.259,17.115a42.733,42.733,0,0,1,2,5.063c.464,1.5.856,3,1.177,4.528,1.676,8.237-.178,16.759-2.781,24.6-1,3.066-1.783,6.6-3.6,9.306-.107.143-.178.285-.25.392a5.066,5.066,0,0,1-4.065,2.032h-15.4a5.066,5.066,0,0,1-4.065-2.032,2.4,2.4,0,0,0-.25-.392c-1.818-2.71-2.6-6.2-3.6-9.306C.849,43.465-1.041,34.943.635,26.707c.321-1.533.713-3.031,1.177-4.528a42.734,42.734,0,0,1,2-5.063A51.09,51.09,0,0,1,15.753,1.248a4.935,4.935,0,0,1,6.561,0Z" transform="translate(7.136 0)" fill="none" stroke="#fff" stroke-linecap="round" stroke-linejoin="round" stroke-width="1.5" stroke-dasharray="0 0"/>
        <path id="Vector-2" data-name="Vector" d="M0,20.146l6.383,4.707a3.422,3.422,0,0,0,3.245.464,3.993,3.993,0,0,0,1.177-.784,3.36,3.36,0,0,0,.927-1.712l2.282-11.3a4.966,4.966,0,0,0-1.07-4.207l-6.1-7.1A.452.452,0,0,0,6.882,0" transform="translate(38.186 40.47)" fill="none" stroke="#fff" stroke-linecap="round" stroke-linejoin="round" stroke-width="1.5" stroke-dasharray="0 0"/>
        <path id="Vector-3" data-name="Vector" d="M7.272,0l-6.1,7.1A5,5,0,0,0,.105,11.3l2.282,11.3a3.373,3.373,0,0,0,5.348,2.032l6.383-4.707" transform="translate(0 40.648)" fill="none" stroke="#fff" stroke-linecap="round" stroke-linejoin="round" stroke-width="1.5" stroke-dasharray="0 0"/>
        <path id="Vector-4" data-name="Vector" d="M7.06,14.12a7.06,7.06,0,1,1,7.06-7.06A7.06,7.06,0,0,1,7.06,14.12Z" transform="translate(19.11 18.113)" fill="none" stroke="#fff" stroke-linecap="round" stroke-linejoin="round" stroke-width="1.5" stroke-dasharray="0 0"/>
        <path id="Vector-5" data-name="Vector" d="M0,0H28.24" transform="translate(12.05 49.883)" fill="none" stroke="#fff" stroke-linecap="round" stroke-linejoin="round" stroke-width="1.5" stroke-dasharray="0 0"/>
      </g>
    </g>
  </g>
</svg>
